<?xml version="1.0" encoding="UTF-8" standalone="no"?>
<svg width="46px" height="35px" viewBox="0 0 46 35" version="1.1" xmlns="http://www.w3.org/2000/svg" xmlns:xlink="http://www.w3.org/1999/xlink">
    <!-- Generator: Sketch 46.2 (44496) - http://www.bohemiancoding.com/sketch -->
    <title>MC</title>
    <desc>Created with Sketch.</desc>
    <defs></defs>
    <g id="Page-1" stroke="none" stroke-width="1" fill="none" fill-rule="evenodd" opacity="0.5">
        <g id="LP_dissertation" transform="translate(-523.000000, -4353.000000)" fill="#FFFFFF">
            <g id="9" transform="translate(0.000000, 4021.000000)">
                <g id="Group-6" transform="translate(308.000000, 332.000000)">
                    <path d="M237.527945,2.97632706 C237.345043,3.11766054 237.170455,3.25899403 237.00418,3.40864124 C231.209507,8.43761909 230.589303,17.2119342 235.61828,23.006607 C236.046438,23.5004428 236.509513,23.9635178 237.00418,24.3925065 C237.176274,24.5421537 237.350863,24.6859813 237.527945,24.8248207 L238.05171,24.3925065 C243.846383,19.3635286 244.466588,10.5892135 239.43761,4.79537211 C239.009453,4.30070493 238.545546,3.83762993 238.05171,3.40864124 L237.527945,2.97632706 L237.527945,2.97632706 Z M246.124346,1.02017685e-05 C243.38414,-0.00331529193 240.704623,0.806442424 238.425828,2.32785579 L238.758378,2.60220902 C245.000329,8.01860688 245.669585,17.4704913 240.253187,23.712443 C239.790944,24.2453534 239.291288,24.7450088 238.758378,25.2072524 L238.425828,25.4816057 C244.817427,29.7423945 253.452903,28.0156319 257.714523,21.6248643 C261.975312,15.2332655 260.248549,6.59695833 253.856951,2.33616952 C251.567348,0.809767917 248.876192,-0.00331529193 246.124346,1.02017685e-05 L246.124346,1.02017685e-05 Z M236.280885,25.2405074 L236.613434,25.5148606 C230.217679,29.7689984 221.583866,28.0330907 217.329728,21.6365036 C213.074759,15.2407478 214.811498,6.60693481 221.207253,2.35279699 C225.873752,-0.750720001 231.946935,-0.750720001 236.613434,2.35279699 L236.280885,2.62715022 C230.038933,8.04437946 229.369678,17.4954325 234.786076,23.7373842 C235.248319,24.2702946 235.747975,24.76995 236.280885,25.2321936 L236.280885,25.2405074 Z M259.559341,22.5551712 L259.559341,22.0147785 L259.418007,22.0147785 L259.260046,22.3888965 L259.102085,22.0147785 L258.960752,22.0147785 L258.960752,22.5551712 L259.060517,22.5551712 L259.060517,22.1477982 L259.210164,22.4969751 L259.309929,22.4969751 L259.459576,22.1477982 L259.459576,22.5551712 L259.559341,22.5551712 Z M258.669771,22.5551712 L258.669771,22.1145433 L258.852673,22.1145433 L258.852673,22.0230922 L258.395418,22.0230922 L258.395418,22.1145433 L258.57832,22.1145433 L258.57832,22.5634849 L258.669771,22.5551712 Z M259.093772,34.5768309 L259.093772,34.668282 L259.226791,34.668282 L259.093772,34.668282 L259.093772,34.5768309 Z M259.176909,34.5103211 C259.209333,34.4995132 259.24425,34.4995132 259.276674,34.5103211 C259.288313,34.536925 259.288313,34.5676858 259.276674,34.5934584 C259.284988,34.6150741 259.284988,34.6383526 259.276674,34.6599683 C259.249239,34.6691134 259.22014,34.6691134 259.193537,34.6599683 L259.301615,34.7846743 L259.210164,34.7846743 L259.110399,34.6599683 L259.110399,34.7846743 L259.035576,34.7846743 L259.035576,34.5020073 L259.176909,34.5103211 Z M259.176909,34.9675764 L259.284988,34.9675764 L259.376439,34.9093803 C259.40138,34.8827763 259.420501,34.8520155 259.434635,34.8179292 C259.48036,34.710682 259.457082,34.585976 259.376439,34.5020073 L259.284988,34.4438112 L259.176909,34.4438112 L259.060517,34.4438112 L258.969066,34.5020073 C258.943293,34.5286113 258.924172,34.5593721 258.91087,34.5934584 C258.88094,34.6649565 258.88094,34.7464311 258.91087,34.8179292 C258.924172,34.8520155 258.943293,34.8827763 258.969066,34.9093803 L259.060517,34.9675764 L259.176909,34.9675764 Z M259.176909,34.3107914 C259.223466,34.3016463 259.271686,34.3016463 259.318243,34.3107914 C259.361474,34.3307444 259.40138,34.3598425 259.434635,34.3939288 C259.469553,34.4271837 259.497819,34.4662583 259.517772,34.5103211 C259.526917,34.556878 259.526917,34.6050976 259.517772,34.6516545 C259.526917,34.6982114 259.526917,34.7464311 259.517772,34.792988 C259.497819,34.8370508 259.469553,34.8769567 259.434635,34.9093803 C259.40138,34.944298 259.361474,34.9725647 259.318243,34.9925176 C259.271686,35.0016627 259.223466,35.0016627 259.176909,34.9925176 C259.127858,35.0024941 259.076313,35.0024941 259.027262,34.9925176 C258.983199,34.9725647 258.944125,34.944298 258.91087,34.9093803 C258.875121,34.8769567 258.846854,34.8370508 258.827732,34.792988 C258.817756,34.7464311 258.817756,34.6982114 258.827732,34.6516545 C258.818587,34.6050976 258.818587,34.556878 258.827732,34.5103211 C258.847685,34.4662583 258.875952,34.4271837 258.91087,34.3939288 C258.944125,34.3590111 258.983199,34.3307444 259.027262,34.3107914 C259.081301,34.2958267 259.138666,34.2933326 259.193537,34.3024777 L259.176909,34.3107914 Z M224.724794,32.9972214 C224.761375,32.3828365 225.289297,31.9147732 225.903682,31.952185 C226.517235,31.9879341 226.985299,32.5158562 226.948718,33.1302412 C226.913801,33.7146967 226.432435,34.1719521 225.847148,34.1777717 C225.236089,34.1744462 224.743916,33.6772849 224.747241,33.0662254 C224.747241,33.0437783 224.748073,33.0204999 224.749736,32.9972214 L224.724794,32.9972214 Z M227.717739,32.9972214 L227.717739,31.1515724 L226.886365,31.1515724 L226.886365,31.5922003 C226.607855,31.2347098 226.17471,31.0343488 225.722442,31.0518076 C224.652465,31.0518076 223.785342,31.9189301 223.785342,32.9897391 C223.786174,34.0588853 224.652465,34.9260078 225.722442,34.9260078 C226.17471,34.944298 226.607855,34.7422742 226.886365,34.385615 L226.886365,34.8345567 L227.717739,34.8345567 L227.717739,32.9972214 Z M254.845454,32.9972214 C254.877877,32.3778482 255.404968,31.9023026 256.025172,31.9347262 C256.643714,31.9671497 257.11926,32.4942405 257.086836,33.1136137 C257.056075,33.7097084 256.564734,34.1769403 255.967808,34.1777717 C255.35758,34.1885795 254.852936,33.7022261 254.842959,33.0911666 C254.842959,33.0604058 254.843791,33.0288136 254.845454,32.9972214 L254.845454,32.9972214 Z M257.838398,32.9972214 L257.838398,29.6717277 L257.007024,29.6717277 L257.007024,31.5922003 C256.728514,31.2347098 256.295369,31.0343488 255.843102,31.0518076 C254.773124,31.0518076 253.906002,31.9189301 253.906833,32.9897391 C253.906833,34.0588853 254.773955,34.9260078 255.843102,34.9260078 C256.295369,34.944298 256.728514,34.7422742 257.007024,34.385615 L257.007024,34.8345567 L257.838398,34.8345567 L257.838398,32.9972214 Z M237.719161,31.7667888 C238.223805,31.7576436 238.641154,32.159197 238.650299,32.6638407 L238.650299,32.6646721 L236.73814,32.6646721 C236.765576,32.1475578 237.202047,31.7476672 237.719161,31.7667888 L237.719161,31.7667888 Z M237.719161,31.0518076 C236.649183,31.0684351 235.795363,31.9480282 235.811159,33.0180058 C235.826955,34.0879834 236.70738,34.9418039 237.777357,34.9260078 C238.327726,34.9467921 238.866456,34.7630586 239.290457,34.4105562 L238.899711,33.8119674 C238.594597,34.0547284 238.217154,34.1894109 237.82724,34.1943992 C237.273545,34.2426188 236.783035,33.8410654 236.721513,33.2882021 L239.465045,33.2882021 L239.465045,32.980594 C239.556496,32.0070557 238.842346,31.1432587 237.867977,31.0518076 C237.8156,31.0468194 237.763224,31.0434939 237.710847,31.0434939 L237.719161,31.0518076 Z M247.404661,32.9972214 C247.441242,32.3828365 247.969164,31.9147732 248.582718,31.952185 C249.197934,31.9879341 249.665166,32.5158562 249.628585,33.1302412 C249.593668,33.7146967 249.112302,34.1719521 248.527016,34.1777717 C247.916787,34.1885795 247.412975,33.7022261 247.402167,33.0911666 C247.401336,33.0604058 247.402167,33.0288136 247.404661,32.9972214 L247.404661,32.9972214 Z M250.397606,32.9972214 L250.397606,31.1515724 L249.566232,31.1515724 L249.566232,31.5922003 C249.287722,31.2347098 248.855408,31.0343488 248.402309,31.0518076 C247.332332,31.0518076 246.465209,31.9189301 246.465209,32.9897391 C246.465209,34.0588853 247.332332,34.9260078 248.402309,34.9260078 C248.855408,34.944298 249.287722,34.7422742 249.566232,34.385615 L249.566232,34.8345567 L250.397606,34.8345567 L250.397606,32.9972214 Z M242.873676,32.9972214 C242.83959,34.0256303 243.645191,34.8861018 244.672768,34.9201882 C244.732627,34.9226823 244.792486,34.9218509 244.852345,34.917694 C245.335373,34.9418039 245.809256,34.7846743 246.182542,34.4770661 L245.800111,33.8285948 C245.521601,34.0381009 245.184063,34.1536619 244.835718,34.1611442 C244.183921,34.1611442 243.655167,33.6332221 243.655167,32.980594 C243.655167,32.3287972 244.183921,31.8000437 244.835718,31.8000437 C245.184063,31.807526 245.521601,31.923087 245.800111,32.1325931 L246.182542,31.4841218 C245.810087,31.1756822 245.335373,31.0185527 244.852345,31.0434939 C243.825599,30.9778154 242.941017,31.7568123 242.875339,32.7835585 C242.870351,32.8542252 242.870351,32.9257233 242.873676,32.9972214 L242.873676,32.9972214 Z M253.232589,31.0601213 C252.834361,31.0484821 252.460243,31.2563255 252.259882,31.6005141 L252.259882,31.1515724 L251.428509,31.1515724 L251.428509,34.8428704 L252.259882,34.8428704 L252.259882,32.7727506 C252.259882,32.165848 252.525922,31.8249849 253.049687,31.8249849 C253.220118,31.8233221 253.389719,31.854083 253.548511,31.916436 L253.797923,31.1598862 C253.613358,31.095039 253.419648,31.0609527 253.224275,31.0601213 L253.232589,31.0601213 Z M231.708331,31.4425531 C231.25357,31.1740195 230.731467,31.0409998 230.203545,31.0601213 C229.272407,31.0601213 228.665504,31.509063 228.665504,32.2406716 C228.665504,32.8475742 229.114446,33.2133785 229.937506,33.3297708 L230.319938,33.3796532 C230.760565,33.4378493 230.968409,33.5542416 230.968409,33.762085 C230.968409,33.9699283 230.677428,34.2110266 230.137035,34.2110266 C229.695576,34.2259913 229.262431,34.0913088 228.906603,33.8285948 L228.524171,34.4521249 C228.990571,34.7788547 229.550086,34.9484548 230.120408,34.9343215 C231.184566,34.9343215 231.783155,34.4354974 231.783155,33.72883 C231.783155,33.0221626 231.292644,32.7394957 230.494526,32.6231034 L230.112094,32.573221 C229.762917,32.5233386 229.488564,32.4568287 229.488564,32.2074167 C229.488564,31.9580046 229.754604,31.7751025 230.195232,31.7751025 C230.598448,31.7817535 230.99335,31.8906634 231.342527,32.0910244 L231.708331,31.4425531 Z M242.067244,31.0601213 C241.668185,31.0484821 241.295729,31.2563255 241.094537,31.6005141 L241.094537,31.1515724 L240.263164,31.1515724 L240.263164,34.8428704 L241.094537,34.8428704 L241.094537,32.7727506 C241.094537,32.165848 241.360577,31.8249849 241.884342,31.8249849 C242.054773,31.8233221 242.224374,31.854083 242.383166,31.916436 L242.632578,31.1598862 C242.448013,31.095039 242.254303,31.0609527 242.05893,31.0601213 L242.067244,31.0601213 Z M235.216727,31.1515724 L233.903157,31.1515724 L233.903157,30.0292183 L233.071784,30.0292183 L233.071784,31.1515724 L232.323547,31.1515724 L232.323547,31.883181 L233.071784,31.883181 L233.071784,33.5459279 C233.071784,34.3773013 233.404333,34.9093803 234.352099,34.9093803 C234.707095,34.9118744 235.056272,34.8137724 235.35806,34.6267133 L235.125276,33.9366734 C234.910782,34.0638735 234.668021,34.1353716 234.418608,34.1445167 C234.019549,34.1445167 233.88653,33.8951047 233.88653,33.5293004 L233.88653,31.8665536 L235.2001,31.8665536 L235.216727,31.1515724 Z M223.211695,34.8428704 L223.211695,32.5233386 C223.268228,31.7676201 222.702063,31.1091724 221.946344,31.052639 C221.88316,31.0484821 221.819976,31.0476507 221.756791,31.0518076 C221.237183,31.0177213 220.740022,31.2696274 220.459849,31.7085926 C220.203786,31.282098 219.734891,31.0301919 219.23773,31.0518076 C218.805416,31.0310233 218.394717,31.239698 218.156944,31.6005141 L218.156944,31.1432587 L217.325571,31.1432587 L217.325571,34.8345567 L218.156944,34.8345567 L218.156944,32.7976918 C218.071313,32.346256 218.368113,31.9114477 218.819549,31.8266476 C218.899361,31.8116829 218.981667,31.8083574 219.063141,31.8166712 C219.59522,31.8166712 219.894515,32.165848 219.894515,32.7893781 L219.894515,34.8428704 L220.725888,34.8428704 L220.725888,32.7976918 C220.641088,32.346256 220.937057,31.9114477 221.388493,31.8266476 C221.469136,31.8116829 221.550611,31.8083574 221.632085,31.8166712 C222.180792,31.8166712 222.463459,32.165848 222.463459,32.7893781 L222.463459,34.8428704 L223.211695,34.8428704 Z" id="MC"></path>
                </g>
            </g>
        </g>
    </g>
</svg>